# AST/ASF file generated using VICON BodyLanguage
# -----------------------------------------------
:version 1.10
:name VICON
:units
  mass 1.0
  length 0.45
  angle deg
:documentation
   .ast/.asf automatically generated from VICON data using
   VICON BodyBuilder and BodyLanguage model FoxedUp or BRILLIANT.MOD
:root
   order TX TY TZ RX RY RZ
   axis XYZ
   position 0 0 0  
   orientation 0 0 0 
:bonedata
  begin
     id 1 
     name lhipjoint
     direction 0.566809 -0.746272 0.349008 
     length 2.40479 
     axis 0 0 0  XYZ
  end
  begin
     id 2 
     name lfemur
     direction 0.34202 -0.939693 0  
     length 7.1578  
     axis 0 0 20  XYZ
    dof rx ry rz
    limits (-160.0 20.0)
           (-70.0 70.0)
           (-60.0 70.0)
  end
  begin
     id 3 
     name ltibia
     direction 0.34202 -0.939693 0   
     length 7.49137   
     axis 0 0 20   XYZ
    dof rx
    limits (-10.0 170.0)
  end
  begin
     id 4 
     name lfoot
     direction 0.0665746 -0.182912 0.980873   
     length 2.36784   
     axis -90 7.62852e-016 20   XYZ
    dof rx rz
    limits (-45.0 90.0)
           (-70.0 20.0)
  end
  begin
     id 5 
     name ltoes
     direction 1.53601e-011 -4.22058e-011 1   
     length 1.18966   
     axis -90 7.62852e-016 20   XYZ
    dof rx
    limits (-90.0 20.0)
  end
  begin
     id 6 
     name rhipjoint
     direction -0.550236 -0.756381 0.353735   
     length 2.37265  
     axis 0 0 0  XYZ 
  end
  begin
     id 7 
     name rfemur
     direction -0.34202 -0.939693 0   
     length 7.43386   
     axis 0 0 -20   XYZ
    dof rx ry rz
    limits (-160.0 20.0)
           (-70.0 70.0)
           (-70.0 60.0)
  end
  begin
     id 8 
     name rtibia
     direction -0.34202 -0.939693 0   
     length 7.50908   
     axis 0 0 -20   XYZ
    dof rx
    limits (-10.0 170.0)
 end
 begin
     id 9 
     name rfoot
     direction -0.0683029 -0.187661 0.979856   
     length 2.41173  
     axis -90 -7.62852e-016 -20   XYZ
    dof rx rz
    limits (-45.0 90.0)
           (-20.0 70.0)
  end
  begin
     id 10 
     name rtoes
     direction -1.53528e-011 -4.21968e-011 1   
     length 1.21082   
     axis -90 -7.62852e-016 -20   XYZ
    dof rx
    limits (-90.0 20.0)
  end
  begin
     id 11 
     name lowerback
     direction 0.013823 0.995423 -0.0945635   
     length 2.04495   
     axis 0 0 0   XYZ
    dof rx ry rz
    limits (-20.0 45.0)
           (-30.0 30.0)
           (-30.0 30.0)
  end
  begin
     id 12 
     name upperback
     direction 0.0276657 0.9994 -0.020853   
     length 2.05008   
     axis 0 0 0   XYZ
    dof rx ry rz
    limits (-20.0 45.0)
           (-30.0 30.0)
           (-30.0 30.0)
  end
  begin
     id 13 
     name thorax
     direction 0.019782 0.999531 0.0233827   
     length 2.06488   
     axis 0 0 0   XYZ
    dof rx ry rz
    limits (-20.0 45.0)
           (-30.0 30.0)
           (-30.0 30.0)
  end
  begin
     id 14 
     name lowerneck
     direction -0.0308541 0.994709 0.0979874   
     length 1.75553   
     axis 0 0 0   XYZ
    dof rx ry rz
    limits (-20.0 45.0)
           (-30.0 30.0)
           (-30.0 30.0)
  end
  begin
     id 15 
     name upperneck
     direction 0.0588398 0.995804 -0.0700903   
     length 1.76878   
     axis 0 0 0   XYZ
    dof rx ry rz
    limits (-20.0 45.0)
           (-30.0 30.0)
           (-30.0 30.0)
  end
  begin
     id 16
     name head
     direction 0.0209966 0.999159 -0.0352225  
     length 1.77193  
     axis 0 0 0   XYZ
    dof rx ry rz
    limits (-20.0 45.0)
           (-30.0 30.0)
           (-30.0 30.0)
  end
  begin
     id 17 
     name lclavicle
     direction 0.938182 0.335073 -0.0868338  
     length 3.58396  
     axis 0 0 0   XYZ
    dof ry rz
    limits (-20.0 10.0)
           (0.0 20.0)
  end
  begin
     id 18 
     name lhumerus
     direction 1 -4.48971e-011 -1.26313e-017   
     length 4.983   
     axis 180 -30 -90   XYZ
    dof rx ry rz
    limits (-60.0 90.0)
           (-90.0 90.0)
           (-90.0 90.0)
  end
  begin
     id 19
     name lradius
     direction 1 -4.48948e-011 -5.89033e-027   
     length 3.48356   
     axis 180 -30 -90   XYZ
    dof rx
    limits (-10.0 170.0)
  end
  begin
     id 20
     name lwrist
     direction 1 -4.48977e-011 -1.48983e-026   
     length 1.74178   
     axis 9.0955e-015 90 90   XYZ
    dof ry
    limits (-180.0 0.0)
 end
  begin
     id 21 
     name lhand
     direction 1 -4.49046e-011 -2.98066e-026   
     length 0.715259   
     axis 1.90115e-014 90 90   XYZ
    dof rx rz
    limits (-90.0 90.0)
           (-45.0 45.0)
  end
  begin
     id 22 
     name lfingers
     direction 1 -4.48907e-011 -5.95731e-026   
     length 0.576661   
     axis 3.80223e-014 90 90   XYZ
    dof rx
    limits (0.0 90.0)
  end
  begin
     id 23
     name lthumb
     direction 0.707107 -6.34963e-011 0.707107   
     length 0.827973   
     axis -90 45 -3.84942e-014   XYZ
    dof rx rz
    limits (-45.0 45.0)
           (-45.0 45.0)
  end
  begin
     id 24 
     name rclavicle
     direction -0.909637 0.398485 -0.11735   
     length 3.44819  
     axis 0 0 0   XYZ 
    dof ry rz
    limits (-10.0 20.0)
           (-20.0 0.0)
  end
  begin
     id 25 
     name rhumerus
     direction -1 -4.48978e-011 -1.09333e-027  
     length 5.2419   
     axis 180 30 90   XYZ
    dof rx ry rz
    limits (-90.0 60.0)
           (-90.0 90.0)
           (-90.0 90.0)
  end
  begin
     id 26 
     name rradius
     direction -1 -4.48953e-011 -7.61841e-027   
     length 3.44417   
     axis 180 30 90   XYZ
    dof rx
    limits (-10.0 170.0)
  end
  begin
     id 27 
     name rwrist
     direction -1 -4.48977e-011 -1.48983e-026   
     length 1.72209   
     axis 9.0955e-015 -90 -90   XYZ
    dof ry
    limits (-180.0 0.0)
  end
  begin
     id 28
     name rhand
     direction -1 -4.49027e-011 -2.98038e-026   
     length 0.622529   
     axis 1.90115e-014 -90 -90   XYZ
    dof rx rz
    limits (-90.0 90.0)
           (-45.0 45.0)
  end
  begin
     id 29
     name rfingers
     direction -1 -4.48838e-011 -5.95531e-026   
     length 0.501899   
     axis 3.80223e-014 -90 -90   XYZ
    dof rx
    limits (0.0 90.0)
  end
  begin
     id 30
     name rthumb
     direction -0.707107 -6.34937e-011 0.707107   
     length 0.720629   
     axis -90 -45 3.84942e-014   XYZ
    dof rx rz
    limits (-45.0 45.0)
           (-45.0 45.0)
  end
:hierarchy
  begin
    root lhipjoint rhipjoint lowerback
    lhipjoint lfemur
    lfemur ltibia
    ltibia lfoot
    lfoot ltoes
    rhipjoint rfemur
    rfemur rtibia
    rtibia rfoot
    rfoot rtoes
    lowerback upperback
    upperback thorax
    thorax lowerneck lclavicle rclavicle
    lowerneck upperneck
    upperneck head
    lclavicle lhumerus
    lhumerus lradius
    lradius lwrist
    lwrist lhand lthumb
    lhand lfingers
    rclavicle rhumerus
    rhumerus rradius
    rradius rwrist
    rwrist rhand rthumb
    rhand rfingers
  end

#!OML:ASF F:\VICON\USERDATA\Patient Classification 1\PLAYGROUND\JustinFriday\JustinFriday.ASF
:FULLY-SPECIFIED
:DEGREES
846
root -13.2455 30.2955 -9.64863 302.277 84.8753 -88.8414
lowerback 24.1726 0.183179 -1.31923
upperback 9.44905 0.77782 2.10119
thorax -3.09267 0.594473 2.80464
lowerneck 10.8095 -20.7096 -18.0475
upperneck -21.5517 -27.2602 36.1066
head 0.261393 -15.6661 13.3217
rclavicle -1.66979e-014 6.75868e-015
rhumerus -8.37694 27.2997 -76.3953
rradius 68.422
rwrist 24.7645
rhand -47.8767 -7.75545
rfingers 7.12502
rthumb -20.5499 -36.6878
lclavicle -1.66979e-014 6.75868e-015
lhumerus -10.4528 -21.9738 76.2958
lradius 67.6527
lwrist -32.3394
lhand -31.8786 -29.6193
lfingers 7.12502
lthumb -5.13148 0.298571
rfemur -25.7212 6.61141 25.9814
rtibia 32.5851
rfoot -38.2715 -11.0174
rtoes 7.78485
lfemur -27.209 9.25564 -18.5199
ltibia 33.7581
lfoot -37.8453 -0.188375
ltoes -6.09955
847
root -13.2177 30.2931 -9.67561 302.037 84.4852 -89.6503
lowerback 23.3566 0.0845407 -0.728821
upperback 9.35044 0.757889 2.18456
thorax -2.79844 0.583886 2.56251
lowerneck 10.7185 -20.7288 -18.616
upperneck -21.1965 -27.4347 36.4365
head 0.579469 -15.73 13.3823
rclavicle -2.06736e-014 -6.95746e-015
rhumerus -8.40714 27.4514 -76.3167
rradius 68.4019
rwrist 24.7636
rhand -47.7692 -8.27339
rfingers 7.12502
rthumb -20.4466 -37.2168
lclavicle -2.06736e-014 -6.95746e-015
lhumerus -10.6049 -21.8419 76.529
lradius 67.3531
lwrist -32.4343
lhand -32.0904 -29.9213
lfingers 7.12502
lthumb -5.33602 -0.00843406
rfemur -26.2364 6.52575 26.2829
rtibia 32.582
rfoot -38.345 -10.7157
rtoes 6.47041
lfemur -27.6041 8.57717 -18.1159
ltibia 33.6715
lfoot -37.7428 0.669715
ltoes -6.80377
848
root -13.1986 30.2905 -9.70888 306.163 84.8206 -85.9904
lowerback 22.8096 -0.231472 -1.24989
upperback 9.29391 0.201461 1.73048
thorax -2.5584 0.29935 2.50834
lowerneck 10.0123 -20.5285 -17.8777
upperneck -20.453 -27.0566 36.2437
head 0.648521 -15.494 13.1961
rclavicle 0 2.06736e-014
rhumerus -8.13332 28.6728 -76.9544
rradius 68.5584
rwrist 24.1649
rhand -47.9663 -10.1515
rfingers 7.12502
rthumb -20.636 -39.0745
lclavicle 0 2.06736e-014
lhumerus -10.7826 -20.8176 75.8377
lradius 67.1696
lwrist -32.3039
lhand -31.5707 -30.7077
lfingers 7.12502
lthumb -4.8342 -0.782834
rfemur -26.785 6.25585 25.689
rtibia 32.7141
rfoot -38.3568 -10.4781
rtoes 7.76353
lfemur -27.8774 7.79717 -18.6331
ltibia 33.4665
lfoot -37.6412 1.75983
ltoes -7.26912
849
root -13.1809 30.2843 -9.68051 306.973 85.199 -85.1403
lowerback 22.6318 0.00730462 -2.04334
upperback 9.28948 0.349412 1.83066
thorax -2.47919 0.350769 3.03379
lowerneck 10.2919 -20.6031 -18.1928
upperneck -20.426 -27.2489 36.5502
head 0.772762 -15.6207 13.3066
rclavicle -1.27222e-014 3.97569e-015
rhumerus -8.48681 28.3329 -76.4839
rradius 68.7006
rwrist 24.1677
rhand -47.6396 -8.6265
rfingers 7.12502
rthumb -20.3221 -37.5833
lclavicle -1.27222e-014 3.97569e-015
lhumerus -10.9342 -21.1778 76.2359
lradius 67.1738
lwrist -32.3283
lhand -31.3522 -30.4104
lfingers 7.12502
lthumb -4.62326 -0.48088
rfemur -26.6917 6.64047 25.2934
rtibia 32.7222
rfoot -38.6658 -10.1515
rtoes 8.60205
lfemur -27.7808 7.76136 -18.9705
ltibia 33.3971
lfoot -37.6486 1.85406
ltoes -7.92615
850
root -13.1681 30.2828 -9.69477 314.218 86.1793 -77.8834
lowerback 22.6132 0.312582 -2.58256
upperback 9.36326 0.63067 1.69493
thorax -2.40647 0.479961 3.12864
lowerneck 10.3257 -20.9565 -18.8761
upperneck -20.7038 -27.828 37.0481
head 1.05432 -15.921 13.3777
rclavicle -2.98177e-014 -3.06128e-014
rhumerus -8.5272 27.7007 -75.7246
rradius 68.5784
rwrist 23.6203
rhand -47.8 -9.93506
rfingers 7.12502
rthumb -20.4762 -38.8753
lclavicle -2.98177e-014 -3.06128e-014
lhumerus -10.9332 -23.4887 76.4262
lradius 68.1677
lwrist -31.5777
lhand -31.9944 -28.1621
lfingers 7.12502
lthumb -5.24335 1.75306
rfemur -26.7694 6.22597 24.0669
rtibia 32.8446
rfoot -39.0877 -8.53128
rtoes 14.7698
lfemur -27.6765 7.75426 -20.2954
ltibia 33.2701
lfoot -37.7206 1.38332
ltoes -7.69534
851
root -13.1482 30.2698 -9.66677 305.317 85.4046 -86.3452
lowerback 22.9078 0.333995 -1.90124
upperback 9.55765 0.838096 2.07365
thorax -2.35803 0.596735 3.09679
lowerneck 10.1425 -21.0669 -19.2198
upperneck -20.5884 -28.0452 37.251
head 1.27223 -16.0052 13.3686
rclavicle -1.70955e-014 -1.49089e-014
rhumerus -8.27641 27.1526 -75.5678
rradius 68.0263
rwrist 24.2486
rhand -47.6807 -8.05721
rfingers 7.12502
rthumb -20.3615 -37.0098
lclavicle -1.70955e-014 -1.49089e-014
lhumerus -10.8387 -23.6342 76.5193
lradius 67.9745
lwrist -31.9687
lhand -32.4195 -28.469
lfingers 7.12502
lthumb -5.65373 1.4356
rfemur -26.1244 6.84522 25.2281
rtibia 32.8531
rfoot -39.5158 -8.0711
rtoes 14.8033
lfemur -27.1342 7.98656 -19.0526
ltibia 33.2696
lfoot -37.7651 0.842932
ltoes -6.94862
852
root -13.1363 30.2625 -9.66467 306.048 85.2087 -85.5718
lowerback 22.967 0.247199 -1.79778
upperback 9.47426 0.733633 1.95751
thorax -2.47014 0.549432 2.93719
lowerneck 10.266 -20.9439 -19.5613
upperneck -20.215 -28.0122 37.5228
head 1.46299 -15.9911 13.487
rclavicle 2.94201e-014 5.46658e-014
rhumerus -8.521 27.3267 -75.9969
rradius 67.908
rwrist 24.3874
rhand -48.0762 -7.73046
rfingers 7.12502
rthumb -20.7416 -36.642
lclavicle 2.94201e-014 5.46658e-014
lhumerus -10.8232 -22.156 76.6792
lradius 66.8756
lwrist -33.1356
lhand -32.3809 -30.2089
lfingers 7.12502
lthumb -5.61653 -0.303291
rfemur -26.0062 7.01678 25.4187
rtibia 32.8212
rfoot -39.6171 -7.65643
rtoes 17.7404
lfemur -27.0555 8.36132 -18.9154
ltibia 33.3066
lfoot -37.8004 0.692267
ltoes -6.55458
853
root -13.1257 30.259 -9.6778 308.157 85.4623 -83.511
lowerback 22.9493 0.226643 -2.10754
upperback 9.4454 0.640404 1.95023
thorax -2.48626 0.496148 3.12957
lowerneck 10.1725 -20.9361 -20.0391
upperneck -19.9755 -28.1195 37.7631
head 1.70447 -16.0202 13.542
rclavicle -4.77083e-015 5.36719e-015
rhumerus -8.65367 27.3755 -75.9604
rradius 67.9903
rwrist 24.4936
rhand -47.5792 -6.9159
rfingers 7.12502
rthumb -20.264 -35.8788
lclavicle -4.77083e-015 5.36719e-015
lhumerus -11.2921 -22.1683 76.8141
lradius 67.283
lwrist -32.9615
lhand -32.5244 -29.6986
lfingers 7.12502
lthumb -5.75506 0.203296
rfemur -25.965 6.89095 25.0581
rtibia 32.6187
rfoot -39.4351 -8.22677
rtoes 14.0783
lfemur -27.1441 8.29481 -19.2948
ltibia 33.5066
lfoot -38.0003 0.803807
ltoes -6.55125
854
root -13.1117 30.2529 -9.6707 307.107 85.2314 -84.5208
lowerback 23.0068 -0.0959234 -2.87515
upperback 9.58438 0.0832056 1.92374
thorax -2.31273 0.205185 3.67783
lowerneck 9.00521 -20.6647 -18.9296
upperneck -19.1658 -27.539 37.1424
head 1.65285 -15.6181 13.1935
rclavicle -1.11319e-014 -1.70955e-014
rhumerus -7.94729 28.5522 -76.7811
rradius 67.8571
rwrist 24.7268
rhand -47.1743 -6.49977
rfingers 7.12502
rthumb -19.8748 -35.5035
lclavicle -1.11319e-014 -1.70955e-014
lhumerus -11.9473 -21.6568 75.7261
lradius 68.2721
lwrist -32.2508
lhand -32.8764 -28.6172
lfingers 7.12502
lthumb -6.09488 1.27516
rfemur -25.7814 7.20405 25.3049
rtibia 32.4688
rfoot -38.9552 -10.2778
rtoes 11.308
lfemur -27.0816 8.36191 -18.9954
ltibia 33.6218
lfoot -38.197 0.706623
ltoes -6.13438
855
root -13.0955 30.2464 -9.66383 306.336 84.8129 -85.2146
lowerback 23.0106 -0.17016 -2.67438
upperback 9.79067 0.0384107 1.73452
thorax -2.08892 0.19131 3.36892
lowerneck 8.25479 -20.7214 -17.8165
upperneck -19.0363 -27.3756 36.8482
head 1.52956 -15.5089 12.9212
rclavicle 6.36111e-015 5.1684e-015
rhumerus -7.62476 28.3768 -77.6513
rradius 67.6651
rwrist 25.097
rhand -47.4258 -6.42628
rfingers 7.12502
rthumb -20.1166 -35.4048
lclavicle 6.36111e-015 5.1684e-015
lhumerus -11.283 -20.7033 75.3069
lradius 67.3354
lwrist -32.8928
lhand -32.9577 -30.2481
lfingers 7.12502
lthumb -6.17335 -0.358082
rfemur -25.5066 7.63672 25.7144
rtibia 32.2753
rfoot -38.5209 -11.8685
rtoes 6.89021
lfemur -27.0063 8.90644 -18.5798
ltibia 33.7925
lfoot -38.4261 0.372768
ltoes -5.41107
856
root -13.0739 30.2417 -9.69627 302.524 84.672 -88.7369
lowerback 23.3359 -0.297428 -2.59564
upperback 9.7783 -0.0809791 2.18942
thorax -2.24999 0.131458 3.84782
lowerneck 8.54365 -20.551 -18.3766
upperneck -19.1051 -27.2415 36.6669
head 1.4797 -15.4225 13.0074
rclavicle -2.46493e-014 -1.59028e-014
rhumerus -7.69766 29.2301 -76.6132
rradius 68.0185
rwrist 24.5109
rhand -47.3815 -6.3471
rfingers 7.12502
rthumb -20.074 -35.3301
lclavicle -2.46493e-014 -1.59028e-014
lhumerus -11.9124 -20.4782 76.0258
lradius 67.8293
lwrist -32.7713
lhand -32.4978 -30.869
lfingers 7.12502
lthumb -5.72935 -0.966452
rfemur -25.0083 7.36807 25.9028
rtibia 32.0876
rfoot -38.9294 -11.2345
rtoes 9.82668
lfemur -26.6362 8.20492 -18.2872
ltibia 33.9544
lfoot -38.7228 0.798779
ltoes -5.27029
857
root -13.0588 30.2371 -9.70795 302.584 84.1787 -89.2376
lowerback 22.5683 0.220672 -0.440443
upperback 9.42833 0.969084 2.05592
thorax -2.33123 0.688918 2.21102
lowerneck 10.5238 -21.0386 -19.8919
upperneck -20.0003 -28.2744 38.1071
head 1.73453 -16.1707 13.6415
rclavicle -7.15625e-015 4.57205e-015
rhumerus -9.46173 26.6573 -76.3682
rradius 68.4579
rwrist 24.6115
rhand -47.2685 -6.28649
rfingers 7.12502
rthumb -19.9654 -35.2808
lclavicle -7.15625e-015 4.57205e-015
lhumerus -11.433 -22.8475 77.1897
lradius 67.2883
lwrist -33.3387
lhand -32.6525 -30.1539
lfingers 7.12502
lthumb -5.87869 -0.255416
rfemur -25.5531 7.42611 26.3705
rtibia 32.1013
rfoot -39.362 -10.0421
rtoes 10.1542
lfemur -27.2058 8.82226 -17.9043
ltibia 34.0033
lfoot -38.7874 0.259873
ltoes -5.49234
858
root -13.0385 30.226 -9.71827 306.827 84.3163 -85.1075
lowerback 22.4528 -0.196618 -2.01748
upperback 9.51733 0.110674 1.85081
thorax -2.12578 0.230523 3.09722
lowerneck 9.20721 -20.5327 -18.4786
upperneck -19.0603 -27.3128 37.1367
head 1.51713 -15.5483 13.2379
rclavicle -3.02153e-014 -8.34896e-015
rhumerus -8.47684 28.8359 -77.1853
rradius 68.323
rwrist 24.4964
rhand -46.9442 -6.31146
rfingers 7.12502
rthumb -19.6536 -35.338
lclavicle -3.02153e-014 -8.34896e-015
lhumerus -12.4812 -21.5258 75.6772
lradius 68.5777
lwrist -32.1791
lhand -32.4717 -30.3957
lfingers 7.12502
lthumb -5.70417 -0.492503
rfemur -25.7414 7.51924 26.011
rtibia 32.3022
rfoot -39.2034 -10.8659
rtoes 8.79566
lfemur -27.1944 9.4202 -18.3495
ltibia 33.8715
lfoot -38.7794 -0.0622841
ltoes -5.87787
859
root -13.0489 30.2227 -9.72451 306.362 85.4831 -85.258
lowerback 23.0454 0.172895 -2.36342
upperback 9.3774 0.526207 2.1478
thorax -2.59948 0.432471 3.5178
lowerneck 10.3923 -20.8787 -20.0547
upperneck -20.1151 -28.0405 37.7964
head 1.61931 -16.0079 13.6208
rclavicle 7.15625e-015 8.74653e-015
rhumerus -9.25668 27.6779 -75.9613
rradius 68.4844
rwrist 24.457
rhand -46.7356 -6.68784
rfingers 7.12502
rthumb -19.4531 -35.7347
lclavicle 7.15625e-015 8.74653e-015
lhumerus -12.5725 -23.1794 77.0996
lradius 68.9678
lwrist -31.9354
lhand -32.5977 -29.6363
lfingers 7.12502
lthumb -5.82582 0.263598
rfemur -25.5762 7.12591 24.8975
rtibia 32.5481
rfoot -39.0772 -11.6271
rtoes 6.1521
lfemur -26.9102 9.38072 -19.5454
ltibia 33.7082
lfoot -38.6749 -0.656281
ltoes -6.23401
860
root -13.0553 30.214 -9.74062 299.993 86.2024 -91.221
lowerback 23.6544 -0.109997 -1.99606
upperback 9.40433 0.240076 1.85914
thorax -2.85024 0.317764 3.06843
lowerneck 10.5835 -21.0043 -20.0336
upperneck -20.2761 -28.2099 38.0999
head 1.65321 -16.1426 13.6979
rclavicle 1.39149e-014 2.06736e-014
rhumerus -9.4752 27.0975 -76.3244
rradius 68.381
rwrist 24.6892
rhand -46.7489 -6.28104
rfingers 7.12502
rthumb -19.4659 -35.3266
lclavicle 1.39149e-014 2.06736e-014
lhumerus -12.5306 -23.6348 76.9474
lradius 68.9645
lwrist -31.9104
lhand -32.8315 -29.7644
lfingers 7.12502
lthumb -6.05154 0.129127
rfemur -25.2588 6.80295 24.2601
rtibia 32.7675
rfoot -39.3659 -11.4729
rtoes 7.81607
lfemur -26.4724 8.39581 -20.1335
ltibia 33.5198
lfoot -38.5795 0.349056
ltoes -7.33656
